<svg width="42" height="42" viewBox="0 0 42 42" fill="none" xmlns="http://www.w3.org/2000/svg">
<g filter="url(#filter0_d_254_566)">
<path d="M3.06279 4C3.06279 1.78 4.88004 0 7.1465 0C9.41296 0 11.2302 1.78 11.2302 4C11.2302 6.22 9.41296 8 7.1465 8C4.88004 8 3.06279 6.22 3.06279 4ZM14.293 17.9V10H0V26H4.08372V40H11.2302V39.78C8.69831 37.26 7.1465 33.8 7.1465 30C7.1465 24.84 10.0255 20.32 14.293 17.9ZM27.5651 30C27.5651 33.3 24.8086 36 21.4395 36C18.0704 36 15.3139 33.3 15.3139 30C15.3139 27.78 16.5595 25.88 18.3767 24.84V20.52C14.2522 21.8 11.2302 25.54 11.2302 30C11.2302 35.52 15.804 40 21.4395 40C27.075 40 31.6488 35.52 31.6488 30H27.5651ZM33.7723 24H24.5023V12H20.4186V28H31.5671L36.6105 35.42L40 33.2L33.7723 24Z" fill="#D66D50"/>
</g>
<defs>
<filter id="filter0_d_254_566" x="0" y="0" width="42" height="42" filterUnits="userSpaceOnUse" color-interpolation-filters="sRGB">
<feFlood flood-opacity="0" result="BackgroundImageFix"/>
<feColorMatrix in="SourceAlpha" type="matrix" values="0 0 0 0 0 0 0 0 0 0 0 0 0 0 0 0 0 0 127 0" result="hardAlpha"/>
<feOffset dx="2" dy="2"/>
<feComposite in2="hardAlpha" operator="out"/>
<feColorMatrix type="matrix" values="0 0 0 0 0 0 0 0 0 0 0 0 0 0 0 0 0 0 0.25 0"/>
<feBlend mode="normal" in2="BackgroundImageFix" result="effect1_dropShadow_254_566"/>
<feBlend mode="normal" in="SourceGraphic" in2="effect1_dropShadow_254_566" result="shape"/>
</filter>
</defs>
</svg>
