<svg width="151" height="125" viewBox="0 0 151 125" fill="none" xmlns="http://www.w3.org/2000/svg">
<g filter="url(#filter0_bdi_0_1)">
<path d="M2 12C2 6.47716 6.47715 2 12 2H134C139.523 2 144 6.47715 144 12V92.9173C144 98.4401 139.523 102.917 134 102.917C129.349 102.917 124.866 102.917 120.515 102.917C117.26 102.917 116.809 118 113.688 118C110.442 118 104.531 102.917 101.4 102.917C71.6586 102.917 46.3891 102.917 12.0058 102.917C6.48298 102.917 2 98.4401 2 92.9173V12Z" fill="#CECECE"/>
<path d="M2 12C2 6.47716 6.47715 2 12 2H134C139.523 2 144 6.47715 144 12V92.9173C144 98.4401 139.523 102.917 134 102.917C129.349 102.917 124.866 102.917 120.515 102.917C117.26 102.917 116.809 118 113.688 118C110.442 118 104.531 102.917 101.4 102.917C71.6586 102.917 46.3891 102.917 12.0058 102.917C6.48298 102.917 2 98.4401 2 92.9173V12Z" stroke="black" stroke-width="3"/>
</g>
<path d="M39.404 44.4H41.564V57H39.404V44.4ZM43.472 57H40.718V55.002H43.418C44.042 55.002 44.618 54.912 45.146 54.732C45.674 54.552 46.13 54.282 46.514 53.922C46.91 53.562 47.216 53.112 47.432 52.572C47.66 52.032 47.774 51.408 47.774 50.7C47.774 49.992 47.66 49.368 47.432 48.828C47.216 48.288 46.91 47.838 46.514 47.478C46.13 47.118 45.674 46.848 45.146 46.668C44.618 46.488 44.042 46.398 43.418 46.398H40.718V44.4H43.472C44.756 44.4 45.884 44.664 46.856 45.192C47.828 45.708 48.584 46.44 49.124 47.388C49.676 48.324 49.952 49.428 49.952 50.7C49.952 51.972 49.676 53.082 49.124 54.03C48.584 54.966 47.828 55.698 46.856 56.226C45.884 56.742 44.756 57 43.472 57ZM53.7891 48.72V57H51.8631V48.72H53.7891ZM56.2551 50.79C56.0751 50.646 55.9071 50.538 55.7511 50.466C55.5951 50.394 55.3971 50.358 55.1571 50.358C54.8331 50.358 54.5691 50.442 54.3651 50.61C54.1611 50.778 54.0111 51.012 53.9151 51.312C53.8311 51.6 53.7891 51.942 53.7891 52.338L53.1411 51.96C53.1411 51.3 53.2611 50.718 53.5011 50.214C53.7531 49.698 54.0711 49.29 54.4551 48.99C54.8511 48.69 55.2591 48.54 55.6791 48.54C55.9791 48.54 56.2611 48.588 56.5251 48.684C56.7891 48.768 57.0111 48.924 57.1911 49.152L56.2551 50.79ZM58.4532 45.426C58.4532 45.09 58.5732 44.808 58.8132 44.58C59.0652 44.352 59.3532 44.238 59.6772 44.238C60.0252 44.238 60.3132 44.352 60.5412 44.58C60.7812 44.808 60.9012 45.09 60.9012 45.426C60.9012 45.75 60.7812 46.032 60.5412 46.272C60.3132 46.5 60.0252 46.614 59.6772 46.614C59.3532 46.614 59.0652 46.5 58.8132 46.272C58.5732 46.032 58.4532 45.75 58.4532 45.426ZM58.7232 48.72H60.6312V57H58.7232V48.72ZM65.1965 42.96V57H63.2345V42.96H65.1965ZM72.0545 52.86C72.0545 53.76 71.8685 54.534 71.4965 55.182C71.1245 55.83 70.6325 56.328 70.0205 56.676C69.4085 57.012 68.7425 57.18 68.0225 57.18C67.3385 57.18 66.7265 57.006 66.1865 56.658C65.6585 56.31 65.2445 55.812 64.9445 55.164C64.6445 54.516 64.4945 53.748 64.4945 52.86C64.4945 51.96 64.6445 51.192 64.9445 50.556C65.2445 49.908 65.6585 49.41 66.1865 49.062C66.7265 48.714 67.3385 48.54 68.0225 48.54C68.7425 48.54 69.4085 48.714 70.0205 49.062C70.6325 49.398 71.1245 49.89 71.4965 50.538C71.8685 51.174 72.0545 51.948 72.0545 52.86ZM70.0385 52.86C70.0385 52.308 69.9245 51.834 69.6965 51.438C69.4685 51.042 69.1625 50.742 68.7785 50.538C68.4065 50.334 67.9925 50.232 67.5365 50.232C67.1645 50.232 66.7985 50.334 66.4385 50.538C66.0785 50.742 65.7785 51.042 65.5385 51.438C65.3105 51.822 65.1965 52.296 65.1965 52.86C65.1965 53.424 65.3105 53.904 65.5385 54.3C65.7785 54.684 66.0785 54.978 66.4385 55.182C66.7985 55.386 67.1645 55.488 67.5365 55.488C67.9925 55.488 68.4065 55.386 68.7785 55.182C69.1625 54.978 69.4685 54.678 69.6965 54.282C69.9245 53.886 70.0385 53.412 70.0385 52.86ZM75.7961 42.96V57H73.8341V42.96H75.7961ZM82.6541 52.86C82.6541 53.76 82.4681 54.534 82.0961 55.182C81.7241 55.83 81.2321 56.328 80.6201 56.676C80.0081 57.012 79.3421 57.18 78.6221 57.18C77.9381 57.18 77.3261 57.006 76.7861 56.658C76.2581 56.31 75.8441 55.812 75.5441 55.164C75.2441 54.516 75.0941 53.748 75.0941 52.86C75.0941 51.96 75.2441 51.192 75.5441 50.556C75.8441 49.908 76.2581 49.41 76.7861 49.062C77.3261 48.714 77.9381 48.54 78.6221 48.54C79.3421 48.54 80.0081 48.714 80.6201 49.062C81.2321 49.398 81.7241 49.89 82.0961 50.538C82.4681 51.174 82.6541 51.948 82.6541 52.86ZM80.6381 52.86C80.6381 52.308 80.5241 51.834 80.2961 51.438C80.0681 51.042 79.7621 50.742 79.3781 50.538C79.0061 50.334 78.5921 50.232 78.1361 50.232C77.7641 50.232 77.3981 50.334 77.0381 50.538C76.6781 50.742 76.3781 51.042 76.1381 51.438C75.9101 51.822 75.7961 52.296 75.7961 52.86C75.7961 53.424 75.9101 53.904 76.1381 54.3C76.3781 54.684 76.6781 54.978 77.0381 55.182C77.3981 55.386 77.7641 55.488 78.1361 55.488C78.5921 55.488 79.0061 55.386 79.3781 55.182C79.7621 54.978 80.0681 54.678 80.2961 54.282C80.5241 53.886 80.6381 53.412 80.6381 52.86ZM86.3957 42.96V57H84.4337V42.96H86.3957ZM93.2537 52.86C93.2537 53.76 93.0677 54.534 92.6957 55.182C92.3237 55.83 91.8317 56.328 91.2197 56.676C90.6077 57.012 89.9417 57.18 89.2217 57.18C88.5377 57.18 87.9257 57.006 87.3857 56.658C86.8577 56.31 86.4437 55.812 86.1437 55.164C85.8437 54.516 85.6937 53.748 85.6937 52.86C85.6937 51.96 85.8437 51.192 86.1437 50.556C86.4437 49.908 86.8577 49.41 87.3857 49.062C87.9257 48.714 88.5377 48.54 89.2217 48.54C89.9417 48.54 90.6077 48.714 91.2197 49.062C91.8317 49.398 92.3237 49.89 92.6957 50.538C93.0677 51.174 93.2537 51.948 93.2537 52.86ZM91.2377 52.86C91.2377 52.308 91.1237 51.834 90.8957 51.438C90.6677 51.042 90.3617 50.742 89.9777 50.538C89.6057 50.334 89.1917 50.232 88.7357 50.232C88.3637 50.232 87.9977 50.334 87.6377 50.538C87.2777 50.742 86.9777 51.042 86.7377 51.438C86.5097 51.822 86.3957 52.296 86.3957 52.86C86.3957 53.424 86.5097 53.904 86.7377 54.3C86.9777 54.684 87.2777 54.978 87.6377 55.182C87.9977 55.386 88.3637 55.488 88.7357 55.488C89.1917 55.488 89.6057 55.386 89.9777 55.182C90.3617 54.978 90.6677 54.678 90.8957 54.282C91.1237 53.886 91.2377 53.412 91.2377 52.86ZM95.1053 42.96H97.0493V57H95.1053V42.96ZM103.135 57.18C102.295 57.18 101.551 57 100.903 56.64C100.267 56.28 99.775 55.776 99.427 55.128C99.079 54.48 98.905 53.724 98.905 52.86C98.905 51.984 99.079 51.222 99.427 50.574C99.787 49.926 100.291 49.428 100.939 49.08C101.587 48.72 102.349 48.54 103.225 48.54C104.101 48.54 104.845 48.708 105.457 49.044C106.069 49.38 106.537 49.866 106.861 50.502C107.197 51.126 107.365 51.882 107.365 52.77C107.365 52.866 107.359 52.968 107.347 53.076C107.347 53.184 107.341 53.262 107.329 53.31H100.057V51.978H105.673L105.079 52.806C105.115 52.734 105.151 52.638 105.187 52.518C105.235 52.386 105.259 52.278 105.259 52.194C105.259 51.75 105.169 51.366 104.989 51.042C104.821 50.718 104.581 50.466 104.269 50.286C103.969 50.106 103.615 50.016 103.207 50.016C102.715 50.016 102.295 50.124 101.947 50.34C101.599 50.556 101.335 50.868 101.155 51.276C100.975 51.684 100.879 52.188 100.867 52.788C100.867 53.388 100.957 53.898 101.137 54.318C101.317 54.726 101.581 55.038 101.929 55.254C102.289 55.47 102.721 55.578 103.225 55.578C103.753 55.578 104.215 55.47 104.611 55.254C105.007 55.038 105.337 54.708 105.601 54.264L107.275 54.948C106.843 55.692 106.285 56.25 105.601 56.622C104.917 56.994 104.095 57.18 103.135 57.18Z" fill="black"/>
<path d="M38 59.25H107.977V60.15H38V59.25Z" fill="black"/>
<defs>
<filter id="filter0_bdi_0_1" x="-24.5" y="-24.5" width="195" height="169" filterUnits="userSpaceOnUse" color-interpolation-filters="sRGB">
<feFlood flood-opacity="0" result="BackgroundImageFix"/>
<feGaussianBlur in="BackgroundImageFix" stdDeviation="12.5"/>
<feComposite in2="SourceAlpha" operator="in" result="effect1_backgroundBlur_0_1"/>
<feColorMatrix in="SourceAlpha" type="matrix" values="0 0 0 0 0 0 0 0 0 0 0 0 0 0 0 0 0 0 127 0" result="hardAlpha"/>
<feOffset dx="4" dy="4"/>
<feGaussianBlur stdDeviation="0.5"/>
<feComposite in2="hardAlpha" operator="out"/>
<feColorMatrix type="matrix" values="0 0 0 0 0 0 0 0 0 0 0 0 0 0 0 0 0 0 0.25 0"/>
<feBlend mode="normal" in2="effect1_backgroundBlur_0_1" result="effect2_dropShadow_0_1"/>
<feBlend mode="normal" in="SourceGraphic" in2="effect2_dropShadow_0_1" result="shape"/>
<feColorMatrix in="SourceAlpha" type="matrix" values="0 0 0 0 0 0 0 0 0 0 0 0 0 0 0 0 0 0 127 0" result="hardAlpha"/>
<feOffset dy="4"/>
<feGaussianBlur stdDeviation="20"/>
<feComposite in2="hardAlpha" operator="arithmetic" k2="-1" k3="1"/>
<feColorMatrix type="matrix" values="0 0 0 0 1 0 0 0 0 1 0 0 0 0 1 0 0 0 0.35 0"/>
<feBlend mode="normal" in2="shape" result="effect3_innerShadow_0_1"/>
</filter>
</defs>
</svg>
