<svg width="171" height="141" viewBox="0 0 171 141" fill="none" xmlns="http://www.w3.org/2000/svg">
<g filter="url(#filter0_bdi_0_1)">
<path d="M164 12C164 6.47715 159.523 2 154 2H12C6.47716 2 2 6.47715 2 12V106.837C2 112.36 6.47757 116.837 12.0004 116.837C17.8105 116.837 23.3913 116.837 28.7923 116.837C32.5066 116.837 33.0205 134 36.5808 134C40.284 134 47.028 116.837 50.6 116.837C84.9344 116.837 114.045 116.837 153.991 116.837C159.514 116.837 164 112.36 164 106.837V12Z" fill="#CECECE"/>
<path d="M164 12C164 6.47715 159.523 2 154 2H12C6.47716 2 2 6.47715 2 12V106.837C2 112.36 6.47757 116.837 12.0004 116.837C17.8105 116.837 23.3913 116.837 28.7923 116.837C32.5066 116.837 33.0205 134 36.5808 134C40.284 134 47.028 116.837 50.6 116.837C84.9344 116.837 114.045 116.837 153.991 116.837C159.514 116.837 164 112.36 164 106.837V12Z" stroke="black" stroke-width="3"/>
</g>
<path d="M55.4265 48.4H57.5505V59.092H62.5545V61H55.4265V48.4ZM63.8585 49.426C63.8585 49.09 63.9785 48.808 64.2185 48.58C64.4705 48.352 64.7585 48.238 65.0825 48.238C65.4305 48.238 65.7185 48.352 65.9465 48.58C66.1865 48.808 66.3065 49.09 66.3065 49.426C66.3065 49.75 66.1865 50.032 65.9465 50.272C65.7185 50.5 65.4305 50.614 65.0825 50.614C64.7585 50.614 64.4705 50.5 64.2185 50.272C63.9785 50.032 63.8585 49.75 63.8585 49.426ZM64.1285 52.72H66.0365V61H64.1285V52.72ZM74.0397 55.96C74.0397 55.348 73.9137 54.886 73.6617 54.574C73.4097 54.262 73.0197 54.106 72.4917 54.106C72.1317 54.106 71.8137 54.184 71.5377 54.34C71.2617 54.484 71.0457 54.7 70.8897 54.988C70.7337 55.264 70.6557 55.588 70.6557 55.96V61H68.7117V52.72H70.6557V53.998C70.9197 53.506 71.2557 53.14 71.6637 52.9C72.0837 52.66 72.5817 52.54 73.1577 52.54C74.0937 52.54 74.8077 52.828 75.2997 53.404C75.7917 53.968 76.0377 54.748 76.0377 55.744V61H74.0397V55.96ZM78.4483 46.96H80.3563V61H78.4483V46.96ZM83.3983 52.72H85.7743L82.2103 56.14L86.1343 61H83.7763L79.8163 56.14L83.3983 52.72ZM90.7688 61.18C89.9288 61.18 89.1848 61 88.5368 60.64C87.9008 60.28 87.4088 59.776 87.0608 59.128C86.7128 58.48 86.5388 57.724 86.5388 56.86C86.5388 55.984 86.7128 55.222 87.0608 54.574C87.4208 53.926 87.9248 53.428 88.5728 53.08C89.2208 52.72 89.9828 52.54 90.8588 52.54C91.7348 52.54 92.4788 52.708 93.0908 53.044C93.7028 53.38 94.1708 53.866 94.4948 54.502C94.8308 55.126 94.9988 55.882 94.9988 56.77C94.9988 56.866 94.9928 56.968 94.9808 57.076C94.9808 57.184 94.9748 57.262 94.9628 57.31H87.6908V55.978H93.3068L92.7128 56.806C92.7488 56.734 92.7848 56.638 92.8208 56.518C92.8688 56.386 92.8928 56.278 92.8928 56.194C92.8928 55.75 92.8028 55.366 92.6228 55.042C92.4548 54.718 92.2148 54.466 91.9028 54.286C91.6028 54.106 91.2488 54.016 90.8408 54.016C90.3488 54.016 89.9288 54.124 89.5808 54.34C89.2328 54.556 88.9688 54.868 88.7888 55.276C88.6088 55.684 88.5128 56.188 88.5008 56.788C88.5008 57.388 88.5908 57.898 88.7708 58.318C88.9508 58.726 89.2148 59.038 89.5628 59.254C89.9228 59.47 90.3548 59.578 90.8588 59.578C91.3868 59.578 91.8488 59.47 92.2448 59.254C92.6408 59.038 92.9708 58.708 93.2348 58.264L94.9088 58.948C94.4768 59.692 93.9188 60.25 93.2348 60.622C92.5508 60.994 91.7288 61.18 90.7688 61.18ZM103.082 46.96H105.044V61H103.082V46.96ZM96.2243 56.86C96.2243 55.948 96.4103 55.174 96.7823 54.538C97.1543 53.89 97.6463 53.398 98.2583 53.062C98.8823 52.714 99.5483 52.54 100.256 52.54C100.952 52.54 101.558 52.714 102.074 53.062C102.602 53.41 103.016 53.908 103.316 54.556C103.628 55.192 103.784 55.96 103.784 56.86C103.784 57.748 103.628 58.516 103.316 59.164C103.016 59.812 102.602 60.31 102.074 60.658C101.558 61.006 100.952 61.18 100.256 61.18C99.5483 61.18 98.8823 61.012 98.2583 60.676C97.6463 60.328 97.1543 59.83 96.7823 59.182C96.4103 58.534 96.2243 57.76 96.2243 56.86ZM98.2403 56.86C98.2403 57.412 98.3543 57.886 98.5823 58.282C98.8103 58.678 99.1103 58.978 99.4823 59.182C99.8663 59.386 100.28 59.488 100.724 59.488C101.096 59.488 101.462 59.386 101.822 59.182C102.194 58.978 102.494 58.684 102.722 58.3C102.962 57.904 103.082 57.424 103.082 56.86C103.082 56.296 102.962 55.822 102.722 55.438C102.494 55.042 102.194 54.742 101.822 54.538C101.462 54.334 101.096 54.232 100.724 54.232C100.28 54.232 99.8663 54.334 99.4823 54.538C99.1103 54.742 98.8103 55.042 98.5823 55.438C98.3543 55.834 98.2403 56.308 98.2403 56.86ZM107.616 48.4H109.758V61H107.616V48.4ZM117.739 55.96C117.739 55.348 117.613 54.886 117.361 54.574C117.109 54.262 116.719 54.106 116.191 54.106C115.831 54.106 115.513 54.184 115.237 54.34C114.961 54.484 114.745 54.7 114.589 54.988C114.433 55.264 114.355 55.588 114.355 55.96V61H112.411V52.72H114.355V53.998C114.619 53.506 114.955 53.14 115.363 52.9C115.783 52.66 116.281 52.54 116.857 52.54C117.793 52.54 118.507 52.828 118.999 53.404C119.491 53.968 119.737 54.748 119.737 55.744V61H117.739V55.96Z" fill="black"/>
<path d="M54.0225 63.25H120.979V64.15H54.0225V63.25Z" fill="black"/>
<defs>
<filter id="filter0_bdi_0_1" x="-24.5" y="-24.5" width="215" height="185" filterUnits="userSpaceOnUse" color-interpolation-filters="sRGB">
<feFlood flood-opacity="0" result="BackgroundImageFix"/>
<feGaussianBlur in="BackgroundImageFix" stdDeviation="12.5"/>
<feComposite in2="SourceAlpha" operator="in" result="effect1_backgroundBlur_0_1"/>
<feColorMatrix in="SourceAlpha" type="matrix" values="0 0 0 0 0 0 0 0 0 0 0 0 0 0 0 0 0 0 127 0" result="hardAlpha"/>
<feOffset dx="4" dy="4"/>
<feGaussianBlur stdDeviation="0.5"/>
<feComposite in2="hardAlpha" operator="out"/>
<feColorMatrix type="matrix" values="0 0 0 0 0 0 0 0 0 0 0 0 0 0 0 0 0 0 0.25 0"/>
<feBlend mode="normal" in2="effect1_backgroundBlur_0_1" result="effect2_dropShadow_0_1"/>
<feBlend mode="normal" in="SourceGraphic" in2="effect2_dropShadow_0_1" result="shape"/>
<feColorMatrix in="SourceAlpha" type="matrix" values="0 0 0 0 0 0 0 0 0 0 0 0 0 0 0 0 0 0 127 0" result="hardAlpha"/>
<feOffset dy="4"/>
<feGaussianBlur stdDeviation="20"/>
<feComposite in2="hardAlpha" operator="arithmetic" k2="-1" k3="1"/>
<feColorMatrix type="matrix" values="0 0 0 0 1 0 0 0 0 1 0 0 0 0 1 0 0 0 0.35 0"/>
<feBlend mode="normal" in2="shape" result="effect3_innerShadow_0_1"/>
</filter>
</defs>
</svg>
