<svg width="176" height="167" viewBox="0 0 176 167" fill="none" xmlns="http://www.w3.org/2000/svg">
<g filter="url(#filter0_d_0_1)">
<path d="M85.5017 2.00201C26.3905 2.29285 2.44672 33.1086 2.00333 71.4585C1.75391 92.8979 15.5687 111.401 36.7412 122.675C47.0642 129.974 34.7736 153.892 24.9356 160C24.9356 160 59.715 157.632 69.3036 133.131C74.5967 133.907 80.0423 134.309 85.6264 134.309C131.74 134.309 169 109.822 169 71.4585C169 33.0947 145.181 1.71116 85.5017 2.00201Z" fill="#E8E8E8"/>
<path d="M85.5017 2.00201C26.3905 2.29285 2.44672 33.1086 2.00333 71.4585C1.75391 92.8979 15.5687 111.401 36.7412 122.675C47.0642 129.974 34.7736 153.892 24.9356 160C24.9356 160 59.715 157.632 69.3036 133.131C74.5967 133.907 80.0423 134.309 85.6264 134.309C131.74 134.309 169 109.822 169 71.4585C169 33.0947 145.181 1.71116 85.5017 2.00201Z" stroke="black" stroke-width="3" stroke-miterlimit="10" stroke-linejoin="round"/>
</g>
<path d="M66.718 73V71.128H73.072V73H66.718ZM66.718 62.272V60.4H73.072V62.272H66.718ZM66.718 67.168V65.332H72.712V67.168H66.718ZM65.404 60.4H67.492V73H65.404V60.4ZM87.3692 67.744V73H85.4252V67.96C85.4252 67.336 85.3112 66.874 85.0832 66.574C84.8672 66.262 84.5192 66.106 84.0392 66.106C83.7152 66.106 83.4272 66.178 83.1752 66.322C82.9352 66.466 82.7432 66.676 82.5992 66.952C82.4672 67.228 82.4012 67.564 82.4012 67.96V73H80.4572V67.96C80.4572 67.336 80.3432 66.874 80.1152 66.574C79.8992 66.262 79.5512 66.106 79.0712 66.106C78.7352 66.106 78.4412 66.178 78.1892 66.322C77.9492 66.466 77.7632 66.676 77.6312 66.952C77.4992 67.228 77.4332 67.564 77.4332 67.96V73H75.5252V64.72H77.4332V65.926C77.6732 65.47 77.9852 65.128 78.3692 64.9C78.7652 64.66 79.2272 64.54 79.7552 64.54C80.3672 64.54 80.8712 64.666 81.2672 64.918C81.6752 65.17 81.9692 65.536 82.1492 66.016C82.4372 65.536 82.7972 65.17 83.2292 64.918C83.6732 64.666 84.1772 64.54 84.7412 64.54C85.3292 64.54 85.8152 64.666 86.1992 64.918C86.5952 65.158 86.8892 65.518 87.0812 65.998C87.2732 66.478 87.3692 67.06 87.3692 67.744ZM91.0754 70.426C91.0754 70.702 91.1414 70.942 91.2734 71.146C91.4054 71.338 91.5854 71.482 91.8134 71.578C92.0534 71.674 92.3234 71.722 92.6234 71.722C93.0074 71.722 93.3554 71.644 93.6674 71.488C93.9914 71.332 94.2494 71.104 94.4414 70.804C94.6454 70.492 94.7474 70.132 94.7474 69.724L95.0354 70.804C95.0354 71.332 94.8794 71.776 94.5674 72.136C94.2674 72.484 93.8834 72.748 93.4154 72.928C92.9594 73.096 92.4914 73.18 92.0114 73.18C91.4954 73.18 91.0154 73.078 90.5714 72.874C90.1274 72.67 89.7734 72.37 89.5094 71.974C89.2454 71.578 89.1134 71.098 89.1134 70.534C89.1134 69.73 89.3954 69.094 89.9594 68.626C90.5234 68.146 91.3214 67.906 92.3534 67.906C92.9054 67.906 93.3794 67.966 93.7754 68.086C94.1834 68.206 94.5194 68.35 94.7834 68.518C95.0474 68.674 95.2334 68.818 95.3414 68.95V69.94C94.9694 69.676 94.5734 69.484 94.1534 69.364C93.7334 69.244 93.2894 69.184 92.8214 69.184C92.4134 69.184 92.0834 69.238 91.8314 69.346C91.5794 69.442 91.3874 69.58 91.2554 69.76C91.1354 69.94 91.0754 70.162 91.0754 70.426ZM90.4634 66.88L89.6714 65.512C90.0434 65.284 90.5234 65.062 91.1114 64.846C91.7114 64.63 92.3954 64.522 93.1634 64.522C93.8474 64.522 94.4474 64.624 94.9634 64.828C95.4914 65.032 95.9054 65.326 96.2054 65.71C96.5054 66.082 96.6554 66.544 96.6554 67.096V73H94.7474V67.474C94.7474 67.21 94.6994 66.994 94.6034 66.826C94.5194 66.658 94.3994 66.52 94.2434 66.412C94.0874 66.304 93.9014 66.226 93.6854 66.178C93.4694 66.13 93.2354 66.106 92.9834 66.106C92.5994 66.106 92.2334 66.154 91.8854 66.25C91.5494 66.334 91.2554 66.442 91.0034 66.574C90.7634 66.694 90.5834 66.796 90.4634 66.88ZM98.8497 61.426C98.8497 61.09 98.9697 60.808 99.2097 60.58C99.4617 60.352 99.7497 60.238 100.074 60.238C100.422 60.238 100.71 60.352 100.938 60.58C101.178 60.808 101.298 61.09 101.298 61.426C101.298 61.75 101.178 62.032 100.938 62.272C100.71 62.5 100.422 62.614 100.074 62.614C99.7497 62.614 99.4617 62.5 99.2097 62.272C98.9697 62.032 98.8497 61.75 98.8497 61.426ZM99.1197 64.72H101.028V73H99.1197V64.72ZM103.703 58.96H105.647V73H103.703V58.96Z" fill="black"/>
<path d="M64 75.25H106.889V76.15H64V75.25Z" fill="black"/>
<defs>
<filter id="filter0_d_0_1" x="0.499985" y="0.5" width="175" height="166" filterUnits="userSpaceOnUse" color-interpolation-filters="sRGB">
<feFlood flood-opacity="0" result="BackgroundImageFix"/>
<feColorMatrix in="SourceAlpha" type="matrix" values="0 0 0 0 0 0 0 0 0 0 0 0 0 0 0 0 0 0 127 0" result="hardAlpha"/>
<feOffset dx="4" dy="4"/>
<feGaussianBlur stdDeviation="0.5"/>
<feComposite in2="hardAlpha" operator="out"/>
<feColorMatrix type="matrix" values="0 0 0 0 0 0 0 0 0 0 0 0 0 0 0 0 0 0 0.25 0"/>
<feBlend mode="normal" in2="BackgroundImageFix" result="effect1_dropShadow_0_1"/>
<feBlend mode="normal" in="SourceGraphic" in2="effect1_dropShadow_0_1" result="shape"/>
</filter>
</defs>
</svg>
