<svg width="41" height="41" viewBox="0 0 41 41" fill="none" xmlns="http://www.w3.org/2000/svg">
<path d="M41 23.8221C41 23.0386 37.7029 23.2527 37.441 22.6832C37.179 22.1138 41.0945 17.4626 40.5251 16.4194C39.9556 15.3761 34.7327 17.7484 34.4036 17.2257C34.0756 16.7041 34.7361 13.2396 34.1667 12.8125C33.5972 12.3854 28.1875 18.4113 27.4279 17.7006C26.6694 16.9888 29.184 5.74228 28.6647 5.51678C28.1454 5.29128 24.7708 7.07136 24.3449 6.97683C23.9189 6.88117 21.2767 0 20.5 0C19.7233 0 17.0811 6.88117 16.6551 6.97569C16.2292 7.07022 12.8546 5.29014 12.3353 5.51564C11.816 5.74114 14.3306 16.9877 13.571 17.6995C12.8125 18.4113 7.40278 12.3854 6.83333 12.8125C6.26389 13.2396 6.92444 16.7041 6.59644 17.2257C6.2673 17.7473 1.04436 15.375 0.474917 16.4194C-0.0945278 17.4637 3.82211 22.1138 3.55903 22.6832C3.29594 23.2527 0 23.0386 0 23.8221C0 24.6057 9.60994 29.7842 10.25 30.3947C10.8901 31.004 6.93128 33.5858 7.49731 34.0721C8.15331 34.637 11.8695 33.1269 19.3611 32.9822V39.8611C19.3611 40.1632 19.4811 40.4528 19.6947 40.6664C19.9083 40.88 20.1979 41 20.5 41C20.8021 41 21.0917 40.88 21.3053 40.6664C21.5189 40.4528 21.6389 40.1632 21.6389 39.8611V32.9822C29.1294 33.1269 32.8467 34.637 33.5027 34.0721C34.0676 33.5847 30.1099 31.004 30.75 30.3947C31.3901 29.7842 41 24.6046 41 23.8221Z" fill="#DD2E44"/>
</svg>
