<svg width="147" height="139" viewBox="0 0 147 139" fill="none" xmlns="http://www.w3.org/2000/svg">
<g filter="url(#filter0_d_0_1)">
<path d="M70.9986 2.00165C119.845 2.24095 139.631 27.5956 139.997 59.1494C140.203 76.7895 128.788 92.0137 111.292 101.289C102.761 107.295 112.918 126.975 121.047 132C121.047 132 92.3074 130.051 84.3839 109.893C80.0099 110.531 75.51 110.862 70.8956 110.862C32.7895 110.862 2 90.7146 2 59.1494C2 27.5843 21.6828 1.76235 70.9986 2.00165Z" fill="#CFCFCF"/>
<path d="M70.9986 2.00165C119.845 2.24095 139.631 27.5956 139.997 59.1494C140.203 76.7895 128.788 92.0137 111.292 101.289C102.761 107.295 112.918 126.975 121.047 132C121.047 132 92.3074 130.051 84.3839 109.893C80.0099 110.531 75.51 110.862 70.8956 110.862C32.7895 110.862 2 90.7146 2 59.1494C2 27.5843 21.6828 1.76235 70.9986 2.00165Z" stroke="black" stroke-width="3" stroke-miterlimit="10" stroke-linejoin="round"/>
</g>
<path d="M41.744 49.332L40.88 57H38.684L40.412 43.77L45.578 52.32L50.762 43.77L52.49 57H50.294L49.412 49.332L45.578 55.83L41.744 49.332ZM57.9943 57.18C57.1543 57.18 56.4103 57 55.7623 56.64C55.1263 56.28 54.6343 55.776 54.2863 55.128C53.9383 54.48 53.7643 53.724 53.7643 52.86C53.7643 51.984 53.9383 51.222 54.2863 50.574C54.6463 49.926 55.1503 49.428 55.7983 49.08C56.4463 48.72 57.2083 48.54 58.0843 48.54C58.9603 48.54 59.7043 48.708 60.3163 49.044C60.9283 49.38 61.3963 49.866 61.7203 50.502C62.0563 51.126 62.2243 51.882 62.2243 52.77C62.2243 52.866 62.2183 52.968 62.2063 53.076C62.2063 53.184 62.2003 53.262 62.1883 53.31H54.9163V51.978H60.5323L59.9383 52.806C59.9743 52.734 60.0103 52.638 60.0463 52.518C60.0943 52.386 60.1183 52.278 60.1183 52.194C60.1183 51.75 60.0283 51.366 59.8483 51.042C59.6803 50.718 59.4403 50.466 59.1283 50.286C58.8283 50.106 58.4743 50.016 58.0663 50.016C57.5743 50.016 57.1543 50.124 56.8063 50.34C56.4583 50.556 56.1943 50.868 56.0143 51.276C55.8343 51.684 55.7383 52.188 55.7263 52.788C55.7263 53.388 55.8163 53.898 55.9963 54.318C56.1763 54.726 56.4403 55.038 56.7883 55.254C57.1483 55.47 57.5803 55.578 58.0843 55.578C58.6123 55.578 59.0743 55.47 59.4703 55.254C59.8663 55.038 60.1963 54.708 60.4603 54.264L62.1343 54.948C61.7023 55.692 61.1443 56.25 60.4603 56.622C59.7763 56.994 58.9543 57.18 57.9943 57.18ZM70.3079 42.96H72.2699V57H70.3079V42.96ZM63.4499 52.86C63.4499 51.948 63.6359 51.174 64.0079 50.538C64.3799 49.89 64.8719 49.398 65.4839 49.062C66.1079 48.714 66.7739 48.54 67.4819 48.54C68.1779 48.54 68.7839 48.714 69.2999 49.062C69.8279 49.41 70.2419 49.908 70.5419 50.556C70.8539 51.192 71.0099 51.96 71.0099 52.86C71.0099 53.748 70.8539 54.516 70.5419 55.164C70.2419 55.812 69.8279 56.31 69.2999 56.658C68.7839 57.006 68.1779 57.18 67.4819 57.18C66.7739 57.18 66.1079 57.012 65.4839 56.676C64.8719 56.328 64.3799 55.83 64.0079 55.182C63.6359 54.534 63.4499 53.76 63.4499 52.86ZM65.4659 52.86C65.4659 53.412 65.5799 53.886 65.8079 54.282C66.0359 54.678 66.3359 54.978 66.7079 55.182C67.0919 55.386 67.5059 55.488 67.9499 55.488C68.3219 55.488 68.6879 55.386 69.0479 55.182C69.4199 54.978 69.7199 54.684 69.9479 54.3C70.1879 53.904 70.3079 53.424 70.3079 52.86C70.3079 52.296 70.1879 51.822 69.9479 51.438C69.7199 51.042 69.4199 50.742 69.0479 50.538C68.6879 50.334 68.3219 50.232 67.9499 50.232C67.5059 50.232 67.0919 50.334 66.7079 50.538C66.3359 50.742 66.0359 51.042 65.8079 51.438C65.5799 51.834 65.4659 52.308 65.4659 52.86ZM74.6075 45.426C74.6075 45.09 74.7275 44.808 74.9675 44.58C75.2195 44.352 75.5075 44.238 75.8315 44.238C76.1795 44.238 76.4675 44.352 76.6955 44.58C76.9355 44.808 77.0555 45.09 77.0555 45.426C77.0555 45.75 76.9355 46.032 76.6955 46.272C76.4675 46.5 76.1795 46.614 75.8315 46.614C75.5075 46.614 75.2195 46.5 74.9675 46.272C74.7275 46.032 74.6075 45.75 74.6075 45.426ZM74.8775 48.72H76.7855V57H74.8775V48.72ZM81.4588 53.76C81.4588 54.348 81.5848 54.804 81.8368 55.128C82.0888 55.452 82.4728 55.614 82.9888 55.614C83.3608 55.614 83.6848 55.542 83.9608 55.398C84.2368 55.242 84.4528 55.026 84.6088 54.75C84.7648 54.462 84.8428 54.132 84.8428 53.76V48.72H86.7868V57H84.8428V55.722C84.5788 56.202 84.2368 56.568 83.8168 56.82C83.4088 57.06 82.9168 57.18 82.3408 57.18C81.4168 57.18 80.7028 56.892 80.1988 56.316C79.7068 55.74 79.4608 54.96 79.4608 53.976V48.72H81.4588V53.76ZM101.113 51.744V57H99.1693V51.96C99.1693 51.336 99.0553 50.874 98.8273 50.574C98.6113 50.262 98.2633 50.106 97.7833 50.106C97.4593 50.106 97.1713 50.178 96.9193 50.322C96.6793 50.466 96.4873 50.676 96.3433 50.952C96.2113 51.228 96.1453 51.564 96.1453 51.96V57H94.2013V51.96C94.2013 51.336 94.0873 50.874 93.8593 50.574C93.6433 50.262 93.2953 50.106 92.8153 50.106C92.4793 50.106 92.1853 50.178 91.9333 50.322C91.6933 50.466 91.5073 50.676 91.3753 50.952C91.2433 51.228 91.1773 51.564 91.1773 51.96V57H89.2693V48.72H91.1773V49.926C91.4173 49.47 91.7293 49.128 92.1133 48.9C92.5093 48.66 92.9713 48.54 93.4993 48.54C94.1113 48.54 94.6153 48.666 95.0113 48.918C95.4193 49.17 95.7133 49.536 95.8933 50.016C96.1813 49.536 96.5413 49.17 96.9733 48.918C97.4173 48.666 97.9213 48.54 98.4853 48.54C99.0733 48.54 99.5593 48.666 99.9433 48.918C100.339 49.158 100.633 49.518 100.825 49.998C101.017 50.478 101.113 51.06 101.113 51.744Z" fill="black"/>
<path d="M38 59.25H102.355V60.15H38V59.25Z" fill="black"/>
<defs>
<filter id="filter0_d_0_1" x="0.5" y="0.5" width="146" height="138" filterUnits="userSpaceOnUse" color-interpolation-filters="sRGB">
<feFlood flood-opacity="0" result="BackgroundImageFix"/>
<feColorMatrix in="SourceAlpha" type="matrix" values="0 0 0 0 0 0 0 0 0 0 0 0 0 0 0 0 0 0 127 0" result="hardAlpha"/>
<feOffset dx="4" dy="4"/>
<feGaussianBlur stdDeviation="0.5"/>
<feComposite in2="hardAlpha" operator="out"/>
<feColorMatrix type="matrix" values="0 0 0 0 0 0 0 0 0 0 0 0 0 0 0 0 0 0 0.25 0"/>
<feBlend mode="normal" in2="BackgroundImageFix" result="effect1_dropShadow_0_1"/>
<feBlend mode="normal" in="SourceGraphic" in2="effect1_dropShadow_0_1" result="shape"/>
</filter>
</defs>
</svg>
